# xmcd
# 
# Track frame offsets:
#   150
#   14600
#   31800
#   46405
#   64295
#   79655
#   101245
#   120255
#   138182
#   153490
#   171715
#   194442
#   211490
#   226340
#   244805
# 
# Disc length: 3504 seconds
# 
# Revision: 0
# Processed by: cddbd v1.5.1PL2 Copyright (c) Steve Scherf et al.
# Submitted via: Synapstar 1.0 
# 
DISCID=d10dae0f
DTITLE=Various Artist - mm music maestro
DYEAR=1900
DGENRE=Country
TTITLE0=toby keith - i wanna talk about me
TTITLE1=lonestar - with me
TTITLE2=brad paisley - wrapped around
TTITLE3=montgomery gentry - cold one comin' on
TTITLE4=jeffrey steele - somethin' in the water
TTITLE5=david ball - riding with private malone
TTITLE6=jamie o'neal - shiver
TTITLE7=collin raye - ain't nobody gonna take that from me
TTITLE8=brian mccomas - nights disappear with you
TTITLE9=sara evans - saints and angels
TTITLE10=pat green - carry on
TTITLE11=chad brock - tell me now
TTITLE12=charlie robinson - right man for the job
TTITLE13=confederate railroad - that's what brothers do
TTITLE14=tracy byrd - just let me be in love
EXTD=MediaType: Karaoke CD+G Producer: Music Maestro
EXTT0=
EXTT1=
EXTT2=
EXTT3=
EXTT4=
EXTT5=
EXTT6=
EXTT7=
EXTT8=
EXTT9=
EXTT10=
EXTT11=
EXTT12=
EXTT13=
EXTT14=
PLAYORDER=
